<?xml version="1.0" encoding="UTF-8"?>
<svg id="Layer_1" data-name="Layer 1" xmlns="http://www.w3.org/2000/svg" viewBox="0 0 348.79 164.64">
  <defs>
    <style>
      .cls-1 {
        fill: none;
      }
    </style>
  </defs>
  <g>
    <path d="m0,45.03h26c4.58,0,8.7.41,12.38,1.24,3.67.83,6.83,2.18,9.45,4.05,2.62,1.88,4.65,4.28,6.08,7.2,1.42,2.93,2.14,6.45,2.14,10.58,0,4.43-.83,8.14-2.48,11.14-1.65,3-3.88,5.42-6.7,7.26-2.81,1.84-6.1,3.17-9.85,3.99-3.75.83-7.73,1.24-11.93,1.24h-10.92v32.98H0V45.03Zm24.09,34.78c2.32,0,4.54-.17,6.64-.51,2.1-.34,3.98-.94,5.63-1.8,1.65-.86,2.96-2.04,3.94-3.54.97-1.5,1.46-3.45,1.46-5.85s-.49-4.22-1.46-5.68c-.98-1.46-2.27-2.61-3.88-3.43-1.61-.83-3.45-1.37-5.52-1.63-2.06-.26-4.18-.39-6.36-.39h-10.35v22.85h9.9Z"/>
    <path d="m95.21,117.85h-.34c-1.35,2.4-3.53,4.37-6.53,5.91-3,1.54-6.42,2.31-10.24,2.31-2.18,0-4.45-.28-6.81-.84-2.36-.56-4.54-1.5-6.53-2.81-1.99-1.31-3.64-3.04-4.95-5.18-1.31-2.14-1.97-4.78-1.97-7.93,0-4.05,1.14-7.28,3.43-9.68,2.29-2.4,5.23-4.24,8.84-5.52,3.6-1.28,7.6-2.12,11.99-2.53,4.39-.41,8.68-.62,12.89-.62v-1.35c0-3.38-1.22-5.87-3.66-7.48-2.44-1.61-5.35-2.42-8.72-2.42-2.85,0-5.59.6-8.22,1.8-2.63,1.2-4.8,2.66-6.53,4.39l-6.98-8.22c3.08-2.85,6.62-4.99,10.64-6.41,4.01-1.43,8.08-2.14,12.21-2.14,4.8,0,8.76.67,11.87,2.03,3.11,1.35,5.57,3.11,7.37,5.29,1.8,2.18,3.06,4.61,3.77,7.32.71,2.7,1.07,5.4,1.07,8.1v32.86h-12.6v-6.87Zm-.22-17.78h-3.04c-2.18,0-4.47.1-6.87.28-2.4.19-4.61.6-6.64,1.24-2.02.64-3.71,1.54-5.06,2.7-1.35,1.16-2.03,2.76-2.03,4.78,0,1.28.28,2.35.84,3.21.56.86,1.29,1.56,2.2,2.08.9.53,1.91.9,3.04,1.12,1.13.23,2.25.34,3.38.34,4.65,0,8.18-1.24,10.58-3.71,2.4-2.48,3.6-5.85,3.6-10.13v-1.91Z"/>
    <path d="m111.83,70.69h14.97l15.08,39.28h.23l13.39-39.28h14.07l-25.55,65.61c-.98,2.48-2.02,4.67-3.15,6.58-1.13,1.91-2.48,3.53-4.05,4.84-1.58,1.31-3.43,2.31-5.57,2.98-2.14.67-4.71,1.01-7.71,1.01-1.13,0-2.27-.06-3.43-.17-1.16-.11-2.35-.32-3.54-.62l1.12-11.7c.9.3,1.78.51,2.64.62.86.11,1.67.17,2.42.17,1.42,0,2.62-.17,3.6-.51.98-.34,1.8-.86,2.48-1.58.67-.71,1.28-1.6,1.8-2.64.52-1.05,1.09-2.29,1.69-3.71l2.7-6.87-23.18-54.02Z"/>
    <path d="m311.57,0h-90.2c-20.56,0-37.22,16.67-37.22,37.22v90.19c0,20.56,16.67,37.22,37.22,37.22h90.2c20.56,0,37.22-16.67,37.22-37.22V37.22c0-20.56-16.67-37.22-37.22-37.22m-57.63,40.06l4.68-.57c.39-.05,9.82-1.15,20.73,1.14,15.09,3.17,25.78,11.28,30.91,23.46l-9.81,4.13c-6.99-16.59-26.78-18.47-35.87-18.4v49.37h-10.64v-59.13Zm-33.6,6.75c0-4.39,3.56-7.95,7.95-7.95s7.95,3.56,7.95,7.95-3.56,7.95-7.95,7.95-7.95-3.56-7.95-7.95m92.52,45.31c-.57,3.77-1.45,7.16-2.57,9.78-7.21,16.93-24.02,25.52-49.95,25.52h-37.74v-58.75h10.64v48.1h27.1c21.26,0,34.78-6.41,40.16-19.04.63-1.47,1.16-3.41,1.57-5.62h-8.82s15.19-19.07,15.19-19.07l15.22,19.1h-10.8Z"/>
  </g>
  <rect class="cls-1" x="-195" y="-457.93" width="1920" height="1080"/>
</svg>